# xmcd CD database file
#
# Track frame offsets:
#	150
#	42716
#	73469
#	98658
#	120181
#	139865
#	152963
#	188292
#	215776
#	230782
#	265391
#
# Disc length: 4100 seconds
#
# Revision: 0
# Processed by: cddbd v1.5.2PL0 Copyright (c) Steve Scherf et al.
# Submitted via: CDex 1.77
#
DISCID=a710020b
DTITLE=Florian Pellissier Quintet - Bijou Voyou Caillou
DYEAR=2018
DGENRE=Jazz
TTITLE0=Fuck With The Police
TTITLE1=South Beach
TTITLE2=Bijou Voyou Caillou (feat. Arthur H)
TTITLE3=Hibou Bleu (feat. Arthur H)
TTITLE4=Coup De Foudre A Thessalonique
TTITLE5=Colchiques Dans Les Pres
TTITLE6=Boca (feat. Anthony Joseph)
TTITLE7=Colosse De Rhodes
TTITLE8=Interlude Chou
TTITLE9=Espions
TTITLE10=Jazz Carnival
EXTD=YEAR: 2018
EXTT0=
EXTT1=
EXTT2=
EXTT3=
EXTT4=
EXTT5=
EXTT6=
EXTT7=
EXTT8=
EXTT9=
EXTT10=
PLAYORDER=
